<svg xmlns="http://www.w3.org/2000/svg" viewBox="0 0 256 256" width="256" height="256">
  <!-- background -->
  <rect x="0" y="0" width="256" height="256" rx="64" fill="#0E1116"/>
  <!-- pins: top -->
  <rect x="72" y="32" width="14" height="18" rx="2" fill="#F4EFE6"/>
  <rect x="96" y="32" width="14" height="18" rx="2" fill="#F4EFE6"/>
  <rect x="120" y="32" width="14" height="18" rx="2" fill="#F4EFE6"/>
  <rect x="144" y="32" width="14" height="18" rx="2" fill="#F4EFE6"/>
  <rect x="168" y="32" width="14" height="18" rx="2" fill="#F4EFE6"/>
  <!-- pins: bottom -->
  <rect x="72" y="206" width="14" height="18" rx="2" fill="#F4EFE6"/>
  <rect x="96" y="206" width="14" height="18" rx="2" fill="#F4EFE6"/>
  <rect x="120" y="206" width="14" height="18" rx="2" fill="#F4EFE6"/>
  <rect x="144" y="206" width="14" height="18" rx="2" fill="#F4EFE6"/>
  <rect x="168" y="206" width="14" height="18" rx="2" fill="#F4EFE6"/>
  <!-- pins: left -->
  <rect x="32" y="72" width="18" height="14" rx="2" fill="#F4EFE6"/>
  <rect x="32" y="96" width="18" height="14" rx="2" fill="#F4EFE6"/>
  <rect x="32" y="120" width="18" height="14" rx="2" fill="#F4EFE6"/>
  <rect x="32" y="144" width="18" height="14" rx="2" fill="#F4EFE6"/>
  <rect x="32" y="168" width="18" height="14" rx="2" fill="#F4EFE6"/>
  <!-- pins: right -->
  <rect x="206" y="72" width="18" height="14" rx="2" fill="#F4EFE6"/>
  <rect x="206" y="96" width="18" height="14" rx="2" fill="#F4EFE6"/>
  <rect x="206" y="120" width="18" height="14" rx="2" fill="#F4EFE6"/>
  <rect x="206" y="144" width="18" height="14" rx="2" fill="#F4EFE6"/>
  <rect x="206" y="168" width="18" height="14" rx="2" fill="#F4EFE6"/>
  <!-- chip body -->
  <rect x="64" y="64" width="128" height="128" rx="10" fill="#F4EFE6"/>
  <!-- corner divot (orientation mark) -->
  <circle cx="78" cy="78" r="6" fill="#0E1116"/>
  <!-- screen bezel -->
  <rect x="84" y="92" width="88" height="62" rx="5" fill="#0E1116"/>
  <!-- screen face -->
  <rect x="92" y="100" width="72" height="46" rx="2" fill="#7C5CFF" opacity="0.85"/>
  <!-- play triangle -->
  <path d="M118 110 L142 123 L118 136 Z" fill="#0E1116"/>
  <!-- label line -->
  <rect x="88" y="168" width="80" height="6" rx="2" fill="#0E1116"/>
</svg>
